0
SECTION
2
HEADER
9
$ACADVER
1
AC1009
9
$INSUNITS
70
4
0
ENDSEC
0
SECTION
2
TABLES
0
TABLE
2
LAYER
70
2
0
LAYER
2
INNEN
70
0
62
5
6
CONTINUOUS
0
LAYER
2
AUSSEN
70
0
62
1
6
CONTINUOUS
0
ENDTAB
0
ENDSEC
0
SECTION
2
ENTITIES
0
POLYLINE
8
INNEN
66
1
70
1
0
VERTEX
8
INNEN
10
40.0000
20
0.0000
30
0
0
VERTEX
8
INNEN
10
14.5623
20
10.5801
30
0
0
VERTEX
8
INNEN
10
12.3607
20
38.0423
30
0
0
VERTEX
8
INNEN
10
-5.5623
20
17.1190
30
0
0
VERTEX
8
INNEN
10
-32.3607
20
23.5114
30
0
0
VERTEX
8
INNEN
10
-18.0000
20
0.0000
30
0
0
VERTEX
8
INNEN
10
-32.3607
20
-23.5114
30
0
0
VERTEX
8
INNEN
10
-5.5623
20
-17.1190
30
0
0
VERTEX
8
INNEN
10
12.3607
20
-38.0423
30
0
0
VERTEX
8
INNEN
10
14.5623
20
-10.5801
30
0
0
SEQEND
8
INNEN
0
POLYLINE
8
AUSSEN
66
1
70
1
0
VERTEX
8
AUSSEN
10
30.0000
20
0.0000
30
0
0
VERTEX
8
AUSSEN
10
29.8858
20
2.6147
30
0
0
VERTEX
8
AUSSEN
10
29.5442
20
5.2094
30
0
0
VERTEX
8
AUSSEN
10
28.9778
20
7.7646
30
0
0
VERTEX
8
AUSSEN
10
28.1908
20
10.2606
30
0
0
VERTEX
8
AUSSEN
10
27.1892
20
12.6785
30
0
0
VERTEX
8
AUSSEN
10
25.9808
20
15.0000
30
0
0
VERTEX
8
AUSSEN
10
24.5746
20
17.2073
30
0
0
VERTEX
8
AUSSEN
10
22.9813
20
19.2836
30
0
0
VERTEX
8
AUSSEN
10
21.2132
20
21.2132
30
0
0
VERTEX
8
AUSSEN
10
19.2836
20
22.9813
30
0
0
VERTEX
8
AUSSEN
10
17.2073
20
24.5746
30
0
0
VERTEX
8
AUSSEN
10
15.0000
20
25.9808
30
0
0
VERTEX
8
AUSSEN
10
12.6785
20
27.1892
30
0
0
VERTEX
8
AUSSEN
10
10.2606
20
28.1908
30
0
0
VERTEX
8
AUSSEN
10
7.7646
20
28.9778
30
0
0
VERTEX
8
AUSSEN
10
5.2094
20
29.5442
30
0
0
VERTEX
8
AUSSEN
10
2.6147
20
29.8858
30
0
0
VERTEX
8
AUSSEN
10
0.0000
20
30.0000
30
0
0
VERTEX
8
AUSSEN
10
-2.6147
20
29.8858
30
0
0
VERTEX
8
AUSSEN
10
-5.2094
20
29.5442
30
0
0
VERTEX
8
AUSSEN
10
-7.7646
20
28.9778
30
0
0
VERTEX
8
AUSSEN
10
-10.2606
20
28.1908
30
0
0
VERTEX
8
AUSSEN
10
-12.6785
20
27.1892
30
0
0
VERTEX
8
AUSSEN
10
-15.0000
20
25.9808
30
0
0
VERTEX
8
AUSSEN
10
-17.2073
20
24.5746
30
0
0
VERTEX
8
AUSSEN
10
-19.2836
20
22.9813
30
0
0
VERTEX
8
AUSSEN
10
-21.2132
20
21.2132
30
0
0
VERTEX
8
AUSSEN
10
-22.9813
20
19.2836
30
0
0
VERTEX
8
AUSSEN
10
-24.5746
20
17.2073
30
0
0
VERTEX
8
AUSSEN
10
-25.9808
20
15.0000
30
0
0
VERTEX
8
AUSSEN
10
-27.1892
20
12.6785
30
0
0
VERTEX
8
AUSSEN
10
-28.1908
20
10.2606
30
0
0
VERTEX
8
AUSSEN
10
-28.9778
20
7.7646
30
0
0
VERTEX
8
AUSSEN
10
-29.5442
20
5.2094
30
0
0
VERTEX
8
AUSSEN
10
-29.8858
20
2.6147
30
0
0
VERTEX
8
AUSSEN
10
-30.0000
20
0.0000
30
0
0
VERTEX
8
AUSSEN
10
-29.8858
20
-2.6147
30
0
0
VERTEX
8
AUSSEN
10
-29.5442
20
-5.2094
30
0
0
VERTEX
8
AUSSEN
10
-28.9778
20
-7.7646
30
0
0
VERTEX
8
AUSSEN
10
-28.1908
20
-10.2606
30
0
0
VERTEX
8
AUSSEN
10
-27.1892
20
-12.6785
30
0
0
VERTEX
8
AUSSEN
10
-25.9808
20
-15.0000
30
0
0
VERTEX
8
AUSSEN
10
-24.5746
20
-17.2073
30
0
0
VERTEX
8
AUSSEN
10
-22.9813
20
-19.2836
30
0
0
VERTEX
8
AUSSEN
10
-21.2132
20
-21.2132
30
0
0
VERTEX
8
AUSSEN
10
-19.2836
20
-22.9813
30
0
0
VERTEX
8
AUSSEN
10
-17.2073
20
-24.5746
30
0
0
VERTEX
8
AUSSEN
10
-15.0000
20
-25.9808
30
0
0
VERTEX
8
AUSSEN
10
-12.6785
20
-27.1892
30
0
0
VERTEX
8
AUSSEN
10
-10.2606
20
-28.1908
30
0
0
VERTEX
8
AUSSEN
10
-7.7646
20
-28.9778
30
0
0
VERTEX
8
AUSSEN
10
-5.2094
20
-29.5442
30
0
0
VERTEX
8
AUSSEN
10
-2.6147
20
-29.8858
30
0
0
VERTEX
8
AUSSEN
10
-0.0000
20
-30.0000
30
0
0
VERTEX
8
AUSSEN
10
2.6147
20
-29.8858
30
0
0
VERTEX
8
AUSSEN
10
5.2094
20
-29.5442
30
0
0
VERTEX
8
AUSSEN
10
7.7646
20
-28.9778
30
0
0
VERTEX
8
AUSSEN
10
10.2606
20
-28.1908
30
0
0
VERTEX
8
AUSSEN
10
12.6785
20
-27.1892
30
0
0
VERTEX
8
AUSSEN
10
15.0000
20
-25.9808
30
0
0
VERTEX
8
AUSSEN
10
17.2073
20
-24.5746
30
0
0
VERTEX
8
AUSSEN
10
19.2836
20
-22.9813
30
0
0
VERTEX
8
AUSSEN
10
21.2132
20
-21.2132
30
0
0
VERTEX
8
AUSSEN
10
22.9813
20
-19.2836
30
0
0
VERTEX
8
AUSSEN
10
24.5746
20
-17.2073
30
0
0
VERTEX
8
AUSSEN
10
25.9808
20
-15.0000
30
0
0
VERTEX
8
AUSSEN
10
27.1892
20
-12.6785
30
0
0
VERTEX
8
AUSSEN
10
28.1908
20
-10.2606
30
0
0
VERTEX
8
AUSSEN
10
28.9778
20
-7.7646
30
0
0
VERTEX
8
AUSSEN
10
29.5442
20
-5.2094
30
0
0
VERTEX
8
AUSSEN
10
29.8858
20
-2.6147
30
0
0
SEQEND
8
AUSSEN
0
ENDSEC
0
EOF
