0
SECTION
2
HEADER
9
$ACADVER
1
AC1009
9
$INSUNITS
70
4
0
ENDSEC
0
SECTION
2
TABLES
0
TABLE
2
LAYER
70
2
0
LAYER
2
INNEN
70
0
62
5
6
CONTINUOUS
0
LAYER
2
AUSSEN
70
0
62
1
6
CONTINUOUS
0
ENDTAB
0
ENDSEC
0
SECTION
2
ENTITIES
0
POLYLINE
8
INNEN
66
1
70
1
0
VERTEX
8
INNEN
10
0.0000
20
0.0000
30
0
0
VERTEX
8
INNEN
10
60.0000
20
0.0000
30
0
0
VERTEX
8
INNEN
10
60.0000
20
20.0000
30
0
0
VERTEX
8
INNEN
10
20.0000
20
20.0000
30
0
0
VERTEX
8
INNEN
10
20.0000
20
60.0000
30
0
0
VERTEX
8
INNEN
10
0.0000
20
60.0000
30
0
0
SEQEND
8
INNEN
0
POLYLINE
8
AUSSEN
66
1
70
1
0
VERTEX
8
AUSSEN
10
5.0000
20
5.0000
30
0
0
VERTEX
8
AUSSEN
10
45.0000
20
5.0000
30
0
0
VERTEX
8
AUSSEN
10
45.0000
20
45.0000
30
0
0
VERTEX
8
AUSSEN
10
5.0000
20
45.0000
30
0
0
SEQEND
8
AUSSEN
0
ENDSEC
0
EOF
