0
SECTION
2
HEADER
9
$ACADVER
1
AC1009
9
$INSUNITS
70
4
0
ENDSEC
0
SECTION
2
TABLES
0
TABLE
2
LAYER
70
2
0
LAYER
2
INNEN
70
0
62
5
6
CONTINUOUS
0
LAYER
2
AUSSEN
70
0
62
1
6
CONTINUOUS
0
ENDTAB
0
ENDSEC
0
SECTION
2
ENTITIES
0
POLYLINE
8
INNEN
66
1
70
1
0
VERTEX
8
INNEN
10
50.0000
20
0.0000
30
0
0
VERTEX
8
INNEN
10
49.8929
20
1.3081
30
0
0
VERTEX
8
INNEN
10
49.5722
20
2.6105
30
0
0
VERTEX
8
INNEN
10
49.0393
20
3.9018
30
0
0
VERTEX
8
INNEN
10
48.2963
20
5.1764
30
0
0
VERTEX
8
INNEN
10
47.3465
20
6.4288
30
0
0
VERTEX
8
INNEN
10
46.1940
20
7.6537
30
0
0
VERTEX
8
INNEN
10
44.8436
20
8.8458
30
0
0
VERTEX
8
INNEN
10
43.3013
20
10.0000
30
0
0
VERTEX
8
INNEN
10
41.5735
20
11.1114
30
0
0
VERTEX
8
INNEN
10
39.6677
20
12.1752
30
0
0
VERTEX
8
INNEN
10
37.5920
20
13.1869
30
0
0
VERTEX
8
INNEN
10
35.3553
20
14.1421
30
0
0
VERTEX
8
INNEN
10
32.9673
20
15.0368
30
0
0
VERTEX
8
INNEN
10
30.4381
20
15.8671
30
0
0
VERTEX
8
INNEN
10
27.7785
20
16.6294
30
0
0
VERTEX
8
INNEN
10
25.0000
20
17.3205
30
0
0
VERTEX
8
INNEN
10
22.1144
20
17.9375
30
0
0
VERTEX
8
INNEN
10
19.1342
20
18.4776
30
0
0
VERTEX
8
INNEN
10
16.0720
20
18.9386
30
0
0
VERTEX
8
INNEN
10
12.9410
20
19.3185
30
0
0
VERTEX
8
INNEN
10
9.7545
20
19.6157
30
0
0
VERTEX
8
INNEN
10
6.5263
20
19.8289
30
0
0
VERTEX
8
INNEN
10
3.2702
20
19.9572
30
0
0
VERTEX
8
INNEN
10
0.0000
20
20.0000
30
0
0
VERTEX
8
INNEN
10
-3.2702
20
19.9572
30
0
0
VERTEX
8
INNEN
10
-6.5263
20
19.8289
30
0
0
VERTEX
8
INNEN
10
-9.7545
20
19.6157
30
0
0
VERTEX
8
INNEN
10
-12.9410
20
19.3185
30
0
0
VERTEX
8
INNEN
10
-16.0720
20
18.9386
30
0
0
VERTEX
8
INNEN
10
-19.1342
20
18.4776
30
0
0
VERTEX
8
INNEN
10
-22.1144
20
17.9375
30
0
0
VERTEX
8
INNEN
10
-25.0000
20
17.3205
30
0
0
VERTEX
8
INNEN
10
-27.7785
20
16.6294
30
0
0
VERTEX
8
INNEN
10
-30.4381
20
15.8671
30
0
0
VERTEX
8
INNEN
10
-32.9673
20
15.0368
30
0
0
VERTEX
8
INNEN
10
-35.3553
20
14.1421
30
0
0
VERTEX
8
INNEN
10
-37.5920
20
13.1869
30
0
0
VERTEX
8
INNEN
10
-39.6677
20
12.1752
30
0
0
VERTEX
8
INNEN
10
-41.5735
20
11.1114
30
0
0
VERTEX
8
INNEN
10
-43.3013
20
10.0000
30
0
0
VERTEX
8
INNEN
10
-44.8436
20
8.8458
30
0
0
VERTEX
8
INNEN
10
-46.1940
20
7.6537
30
0
0
VERTEX
8
INNEN
10
-47.3465
20
6.4288
30
0
0
VERTEX
8
INNEN
10
-48.2963
20
5.1764
30
0
0
VERTEX
8
INNEN
10
-49.0393
20
3.9018
30
0
0
VERTEX
8
INNEN
10
-49.5722
20
2.6105
30
0
0
VERTEX
8
INNEN
10
-49.8929
20
1.3081
30
0
0
VERTEX
8
INNEN
10
-50.0000
20
0.0000
30
0
0
VERTEX
8
INNEN
10
-49.8929
20
-1.3081
30
0
0
VERTEX
8
INNEN
10
-49.5722
20
-2.6105
30
0
0
VERTEX
8
INNEN
10
-49.0393
20
-3.9018
30
0
0
VERTEX
8
INNEN
10
-48.2963
20
-5.1764
30
0
0
VERTEX
8
INNEN
10
-47.3465
20
-6.4288
30
0
0
VERTEX
8
INNEN
10
-46.1940
20
-7.6537
30
0
0
VERTEX
8
INNEN
10
-44.8436
20
-8.8458
30
0
0
VERTEX
8
INNEN
10
-43.3013
20
-10.0000
30
0
0
VERTEX
8
INNEN
10
-41.5735
20
-11.1114
30
0
0
VERTEX
8
INNEN
10
-39.6677
20
-12.1752
30
0
0
VERTEX
8
INNEN
10
-37.5920
20
-13.1869
30
0
0
VERTEX
8
INNEN
10
-35.3553
20
-14.1421
30
0
0
VERTEX
8
INNEN
10
-32.9673
20
-15.0368
30
0
0
VERTEX
8
INNEN
10
-30.4381
20
-15.8671
30
0
0
VERTEX
8
INNEN
10
-27.7785
20
-16.6294
30
0
0
VERTEX
8
INNEN
10
-25.0000
20
-17.3205
30
0
0
VERTEX
8
INNEN
10
-22.1144
20
-17.9375
30
0
0
VERTEX
8
INNEN
10
-19.1342
20
-18.4776
30
0
0
VERTEX
8
INNEN
10
-16.0720
20
-18.9386
30
0
0
VERTEX
8
INNEN
10
-12.9410
20
-19.3185
30
0
0
VERTEX
8
INNEN
10
-9.7545
20
-19.6157
30
0
0
VERTEX
8
INNEN
10
-6.5263
20
-19.8289
30
0
0
VERTEX
8
INNEN
10
-3.2702
20
-19.9572
30
0
0
VERTEX
8
INNEN
10
-0.0000
20
-20.0000
30
0
0
VERTEX
8
INNEN
10
3.2702
20
-19.9572
30
0
0
VERTEX
8
INNEN
10
6.5263
20
-19.8289
30
0
0
VERTEX
8
INNEN
10
9.7545
20
-19.6157
30
0
0
VERTEX
8
INNEN
10
12.9410
20
-19.3185
30
0
0
VERTEX
8
INNEN
10
16.0720
20
-18.9386
30
0
0
VERTEX
8
INNEN
10
19.1342
20
-18.4776
30
0
0
VERTEX
8
INNEN
10
22.1144
20
-17.9375
30
0
0
VERTEX
8
INNEN
10
25.0000
20
-17.3205
30
0
0
VERTEX
8
INNEN
10
27.7785
20
-16.6294
30
0
0
VERTEX
8
INNEN
10
30.4381
20
-15.8671
30
0
0
VERTEX
8
INNEN
10
32.9673
20
-15.0368
30
0
0
VERTEX
8
INNEN
10
35.3553
20
-14.1421
30
0
0
VERTEX
8
INNEN
10
37.5920
20
-13.1869
30
0
0
VERTEX
8
INNEN
10
39.6677
20
-12.1752
30
0
0
VERTEX
8
INNEN
10
41.5735
20
-11.1114
30
0
0
VERTEX
8
INNEN
10
43.3013
20
-10.0000
30
0
0
VERTEX
8
INNEN
10
44.8436
20
-8.8458
30
0
0
VERTEX
8
INNEN
10
46.1940
20
-7.6537
30
0
0
VERTEX
8
INNEN
10
47.3465
20
-6.4288
30
0
0
VERTEX
8
INNEN
10
48.2963
20
-5.1764
30
0
0
VERTEX
8
INNEN
10
49.0393
20
-3.9018
30
0
0
VERTEX
8
INNEN
10
49.5722
20
-2.6105
30
0
0
VERTEX
8
INNEN
10
49.8929
20
-1.3081
30
0
0
SEQEND
8
INNEN
0
POLYLINE
8
AUSSEN
66
1
70
1
0
VERTEX
8
AUSSEN
10
0.0000
20
50.0000
30
0
0
VERTEX
8
AUSSEN
10
-1.3081
20
49.8929
30
0
0
VERTEX
8
AUSSEN
10
-2.6105
20
49.5722
30
0
0
VERTEX
8
AUSSEN
10
-3.9018
20
49.0393
30
0
0
VERTEX
8
AUSSEN
10
-5.1764
20
48.2963
30
0
0
VERTEX
8
AUSSEN
10
-6.4288
20
47.3465
30
0
0
VERTEX
8
AUSSEN
10
-7.6537
20
46.1940
30
0
0
VERTEX
8
AUSSEN
10
-8.8458
20
44.8436
30
0
0
VERTEX
8
AUSSEN
10
-10.0000
20
43.3013
30
0
0
VERTEX
8
AUSSEN
10
-11.1114
20
41.5735
30
0
0
VERTEX
8
AUSSEN
10
-12.1752
20
39.6677
30
0
0
VERTEX
8
AUSSEN
10
-13.1869
20
37.5920
30
0
0
VERTEX
8
AUSSEN
10
-14.1421
20
35.3553
30
0
0
VERTEX
8
AUSSEN
10
-15.0368
20
32.9673
30
0
0
VERTEX
8
AUSSEN
10
-15.8671
20
30.4381
30
0
0
VERTEX
8
AUSSEN
10
-16.6294
20
27.7785
30
0
0
VERTEX
8
AUSSEN
10
-17.3205
20
25.0000
30
0
0
VERTEX
8
AUSSEN
10
-17.9375
20
22.1144
30
0
0
VERTEX
8
AUSSEN
10
-18.4776
20
19.1342
30
0
0
VERTEX
8
AUSSEN
10
-18.9386
20
16.0720
30
0
0
VERTEX
8
AUSSEN
10
-19.3185
20
12.9410
30
0
0
VERTEX
8
AUSSEN
10
-19.6157
20
9.7545
30
0
0
VERTEX
8
AUSSEN
10
-19.8289
20
6.5263
30
0
0
VERTEX
8
AUSSEN
10
-19.9572
20
3.2702
30
0
0
VERTEX
8
AUSSEN
10
-20.0000
20
0.0000
30
0
0
VERTEX
8
AUSSEN
10
-19.9572
20
-3.2702
30
0
0
VERTEX
8
AUSSEN
10
-19.8289
20
-6.5263
30
0
0
VERTEX
8
AUSSEN
10
-19.6157
20
-9.7545
30
0
0
VERTEX
8
AUSSEN
10
-19.3185
20
-12.9410
30
0
0
VERTEX
8
AUSSEN
10
-18.9386
20
-16.0720
30
0
0
VERTEX
8
AUSSEN
10
-18.4776
20
-19.1342
30
0
0
VERTEX
8
AUSSEN
10
-17.9375
20
-22.1144
30
0
0
VERTEX
8
AUSSEN
10
-17.3205
20
-25.0000
30
0
0
VERTEX
8
AUSSEN
10
-16.6294
20
-27.7785
30
0
0
VERTEX
8
AUSSEN
10
-15.8671
20
-30.4381
30
0
0
VERTEX
8
AUSSEN
10
-15.0368
20
-32.9673
30
0
0
VERTEX
8
AUSSEN
10
-14.1421
20
-35.3553
30
0
0
VERTEX
8
AUSSEN
10
-13.1869
20
-37.5920
30
0
0
VERTEX
8
AUSSEN
10
-12.1752
20
-39.6677
30
0
0
VERTEX
8
AUSSEN
10
-11.1114
20
-41.5735
30
0
0
VERTEX
8
AUSSEN
10
-10.0000
20
-43.3013
30
0
0
VERTEX
8
AUSSEN
10
-8.8458
20
-44.8436
30
0
0
VERTEX
8
AUSSEN
10
-7.6537
20
-46.1940
30
0
0
VERTEX
8
AUSSEN
10
-6.4288
20
-47.3465
30
0
0
VERTEX
8
AUSSEN
10
-5.1764
20
-48.2963
30
0
0
VERTEX
8
AUSSEN
10
-3.9018
20
-49.0393
30
0
0
VERTEX
8
AUSSEN
10
-2.6105
20
-49.5722
30
0
0
VERTEX
8
AUSSEN
10
-1.3081
20
-49.8929
30
0
0
VERTEX
8
AUSSEN
10
-0.0000
20
-50.0000
30
0
0
VERTEX
8
AUSSEN
10
1.3081
20
-49.8929
30
0
0
VERTEX
8
AUSSEN
10
2.6105
20
-49.5722
30
0
0
VERTEX
8
AUSSEN
10
3.9018
20
-49.0393
30
0
0
VERTEX
8
AUSSEN
10
5.1764
20
-48.2963
30
0
0
VERTEX
8
AUSSEN
10
6.4288
20
-47.3465
30
0
0
VERTEX
8
AUSSEN
10
7.6537
20
-46.1940
30
0
0
VERTEX
8
AUSSEN
10
8.8458
20
-44.8436
30
0
0
VERTEX
8
AUSSEN
10
10.0000
20
-43.3013
30
0
0
VERTEX
8
AUSSEN
10
11.1114
20
-41.5735
30
0
0
VERTEX
8
AUSSEN
10
12.1752
20
-39.6677
30
0
0
VERTEX
8
AUSSEN
10
13.1869
20
-37.5920
30
0
0
VERTEX
8
AUSSEN
10
14.1421
20
-35.3553
30
0
0
VERTEX
8
AUSSEN
10
15.0368
20
-32.9673
30
0
0
VERTEX
8
AUSSEN
10
15.8671
20
-30.4381
30
0
0
VERTEX
8
AUSSEN
10
16.6294
20
-27.7785
30
0
0
VERTEX
8
AUSSEN
10
17.3205
20
-25.0000
30
0
0
VERTEX
8
AUSSEN
10
17.9375
20
-22.1144
30
0
0
VERTEX
8
AUSSEN
10
18.4776
20
-19.1342
30
0
0
VERTEX
8
AUSSEN
10
18.9386
20
-16.0720
30
0
0
VERTEX
8
AUSSEN
10
19.3185
20
-12.9410
30
0
0
VERTEX
8
AUSSEN
10
19.6157
20
-9.7545
30
0
0
VERTEX
8
AUSSEN
10
19.8289
20
-6.5263
30
0
0
VERTEX
8
AUSSEN
10
19.9572
20
-3.2702
30
0
0
VERTEX
8
AUSSEN
10
20.0000
20
-0.0000
30
0
0
VERTEX
8
AUSSEN
10
19.9572
20
3.2702
30
0
0
VERTEX
8
AUSSEN
10
19.8289
20
6.5263
30
0
0
VERTEX
8
AUSSEN
10
19.6157
20
9.7545
30
0
0
VERTEX
8
AUSSEN
10
19.3185
20
12.9410
30
0
0
VERTEX
8
AUSSEN
10
18.9386
20
16.0720
30
0
0
VERTEX
8
AUSSEN
10
18.4776
20
19.1342
30
0
0
VERTEX
8
AUSSEN
10
17.9375
20
22.1144
30
0
0
VERTEX
8
AUSSEN
10
17.3205
20
25.0000
30
0
0
VERTEX
8
AUSSEN
10
16.6294
20
27.7785
30
0
0
VERTEX
8
AUSSEN
10
15.8671
20
30.4381
30
0
0
VERTEX
8
AUSSEN
10
15.0368
20
32.9673
30
0
0
VERTEX
8
AUSSEN
10
14.1421
20
35.3553
30
0
0
VERTEX
8
AUSSEN
10
13.1869
20
37.5920
30
0
0
VERTEX
8
AUSSEN
10
12.1752
20
39.6677
30
0
0
VERTEX
8
AUSSEN
10
11.1114
20
41.5735
30
0
0
VERTEX
8
AUSSEN
10
10.0000
20
43.3013
30
0
0
VERTEX
8
AUSSEN
10
8.8458
20
44.8436
30
0
0
VERTEX
8
AUSSEN
10
7.6537
20
46.1940
30
0
0
VERTEX
8
AUSSEN
10
6.4288
20
47.3465
30
0
0
VERTEX
8
AUSSEN
10
5.1764
20
48.2963
30
0
0
VERTEX
8
AUSSEN
10
3.9018
20
49.0393
30
0
0
VERTEX
8
AUSSEN
10
2.6105
20
49.5722
30
0
0
VERTEX
8
AUSSEN
10
1.3081
20
49.8929
30
0
0
SEQEND
8
AUSSEN
0
ENDSEC
0
EOF
