0
SECTION
2
HEADER
9
$ACADVER
1
AC1009
9
$INSUNITS
70
4
0
ENDSEC
0
SECTION
2
TABLES
0
TABLE
2
LAYER
70
2
0
LAYER
2
INNEN
70
0
62
5
6
CONTINUOUS
0
LAYER
2
AUSSEN
70
0
62
1
6
CONTINUOUS
0
ENDTAB
0
ENDSEC
0
SECTION
2
ENTITIES
0
POLYLINE
8
INNEN
66
1
70
1
0
VERTEX
8
INNEN
10
70.0000
20
0.0000
30
0
0
VERTEX
8
INNEN
10
71.9509
20
0.1921
30
0
0
VERTEX
8
INNEN
10
73.8268
20
0.7612
30
0
0
VERTEX
8
INNEN
10
75.5557
20
1.6853
30
0
0
VERTEX
8
INNEN
10
77.0711
20
2.9289
30
0
0
VERTEX
8
INNEN
10
78.3147
20
4.4443
30
0
0
VERTEX
8
INNEN
10
79.2388
20
6.1732
30
0
0
VERTEX
8
INNEN
10
79.8079
20
8.0491
30
0
0
VERTEX
8
INNEN
10
80.0000
20
10.0000
30
0
0
VERTEX
8
INNEN
10
80.0000
20
40.0000
30
0
0
VERTEX
8
INNEN
10
79.8079
20
41.9509
30
0
0
VERTEX
8
INNEN
10
79.2388
20
43.8268
30
0
0
VERTEX
8
INNEN
10
78.3147
20
45.5557
30
0
0
VERTEX
8
INNEN
10
77.0711
20
47.0711
30
0
0
VERTEX
8
INNEN
10
75.5557
20
48.3147
30
0
0
VERTEX
8
INNEN
10
73.8268
20
49.2388
30
0
0
VERTEX
8
INNEN
10
71.9509
20
49.8079
30
0
0
VERTEX
8
INNEN
10
70.0000
20
50.0000
30
0
0
VERTEX
8
INNEN
10
10.0000
20
50.0000
30
0
0
VERTEX
8
INNEN
10
8.0491
20
49.8079
30
0
0
VERTEX
8
INNEN
10
6.1732
20
49.2388
30
0
0
VERTEX
8
INNEN
10
4.4443
20
48.3147
30
0
0
VERTEX
8
INNEN
10
2.9289
20
47.0711
30
0
0
VERTEX
8
INNEN
10
1.6853
20
45.5557
30
0
0
VERTEX
8
INNEN
10
0.7612
20
43.8268
30
0
0
VERTEX
8
INNEN
10
0.1921
20
41.9509
30
0
0
VERTEX
8
INNEN
10
0.0000
20
40.0000
30
0
0
VERTEX
8
INNEN
10
0.0000
20
10.0000
30
0
0
VERTEX
8
INNEN
10
0.1921
20
8.0491
30
0
0
VERTEX
8
INNEN
10
0.7612
20
6.1732
30
0
0
VERTEX
8
INNEN
10
1.6853
20
4.4443
30
0
0
VERTEX
8
INNEN
10
2.9289
20
2.9289
30
0
0
VERTEX
8
INNEN
10
4.4443
20
1.6853
30
0
0
VERTEX
8
INNEN
10
6.1732
20
0.7612
30
0
0
VERTEX
8
INNEN
10
8.0491
20
0.1921
30
0
0
VERTEX
8
INNEN
10
10.0000
20
0.0000
30
0
0
SEQEND
8
INNEN
0
POLYLINE
8
AUSSEN
66
1
70
1
0
VERTEX
8
AUSSEN
10
25.0000
20
15.0000
30
0
0
VERTEX
8
AUSSEN
10
55.0000
20
15.0000
30
0
0
VERTEX
8
AUSSEN
10
55.0000
20
35.0000
30
0
0
VERTEX
8
AUSSEN
10
25.0000
20
35.0000
30
0
0
SEQEND
8
AUSSEN
0
ENDSEC
0
EOF
