0
SECTION
2
HEADER
9
$ACADVER
1
AC1009
9
$INSUNITS
70
4
0
ENDSEC
0
SECTION
2
TABLES
0
TABLE
2
LAYER
70
2
0
LAYER
2
INNEN
70
0
62
5
6
CONTINUOUS
0
LAYER
2
AUSSEN
70
0
62
1
6
CONTINUOUS
0
ENDTAB
0
ENDSEC
0
SECTION
2
ENTITIES
0
POLYLINE
8
INNEN
66
1
70
1
0
VERTEX
8
INNEN
10
-30.0000
20
-30.0000
30
0
0
VERTEX
8
INNEN
10
30.0000
20
-30.0000
30
0
0
VERTEX
8
INNEN
10
30.0000
20
30.0000
30
0
0
VERTEX
8
INNEN
10
-30.0000
20
30.0000
30
0
0
SEQEND
8
INNEN
0
POLYLINE
8
AUSSEN
66
1
70
1
0
VERTEX
8
AUSSEN
10
12.0000
20
0.0000
30
0
0
VERTEX
8
AUSSEN
10
11.8973
20
1.5663
30
0
0
VERTEX
8
AUSSEN
10
11.5911
20
3.1058
30
0
0
VERTEX
8
AUSSEN
10
11.0866
20
4.5922
30
0
0
VERTEX
8
AUSSEN
10
10.3923
20
6.0000
30
0
0
VERTEX
8
AUSSEN
10
9.5202
20
7.3051
30
0
0
VERTEX
8
AUSSEN
10
8.4853
20
8.4853
30
0
0
VERTEX
8
AUSSEN
10
7.3051
20
9.5202
30
0
0
VERTEX
8
AUSSEN
10
6.0000
20
10.3923
30
0
0
VERTEX
8
AUSSEN
10
4.5922
20
11.0866
30
0
0
VERTEX
8
AUSSEN
10
3.1058
20
11.5911
30
0
0
VERTEX
8
AUSSEN
10
1.5663
20
11.8973
30
0
0
VERTEX
8
AUSSEN
10
0.0000
20
12.0000
30
0
0
VERTEX
8
AUSSEN
10
-1.5663
20
11.8973
30
0
0
VERTEX
8
AUSSEN
10
-3.1058
20
11.5911
30
0
0
VERTEX
8
AUSSEN
10
-4.5922
20
11.0866
30
0
0
VERTEX
8
AUSSEN
10
-6.0000
20
10.3923
30
0
0
VERTEX
8
AUSSEN
10
-7.3051
20
9.5202
30
0
0
VERTEX
8
AUSSEN
10
-8.4853
20
8.4853
30
0
0
VERTEX
8
AUSSEN
10
-9.5202
20
7.3051
30
0
0
VERTEX
8
AUSSEN
10
-10.3923
20
6.0000
30
0
0
VERTEX
8
AUSSEN
10
-11.0866
20
4.5922
30
0
0
VERTEX
8
AUSSEN
10
-11.5911
20
3.1058
30
0
0
VERTEX
8
AUSSEN
10
-11.8973
20
1.5663
30
0
0
VERTEX
8
AUSSEN
10
-12.0000
20
0.0000
30
0
0
VERTEX
8
AUSSEN
10
-11.8973
20
-1.5663
30
0
0
VERTEX
8
AUSSEN
10
-11.5911
20
-3.1058
30
0
0
VERTEX
8
AUSSEN
10
-11.0866
20
-4.5922
30
0
0
VERTEX
8
AUSSEN
10
-10.3923
20
-6.0000
30
0
0
VERTEX
8
AUSSEN
10
-9.5202
20
-7.3051
30
0
0
VERTEX
8
AUSSEN
10
-8.4853
20
-8.4853
30
0
0
VERTEX
8
AUSSEN
10
-7.3051
20
-9.5202
30
0
0
VERTEX
8
AUSSEN
10
-6.0000
20
-10.3923
30
0
0
VERTEX
8
AUSSEN
10
-4.5922
20
-11.0866
30
0
0
VERTEX
8
AUSSEN
10
-3.1058
20
-11.5911
30
0
0
VERTEX
8
AUSSEN
10
-1.5663
20
-11.8973
30
0
0
VERTEX
8
AUSSEN
10
-0.0000
20
-12.0000
30
0
0
VERTEX
8
AUSSEN
10
1.5663
20
-11.8973
30
0
0
VERTEX
8
AUSSEN
10
3.1058
20
-11.5911
30
0
0
VERTEX
8
AUSSEN
10
4.5922
20
-11.0866
30
0
0
VERTEX
8
AUSSEN
10
6.0000
20
-10.3923
30
0
0
VERTEX
8
AUSSEN
10
7.3051
20
-9.5202
30
0
0
VERTEX
8
AUSSEN
10
8.4853
20
-8.4853
30
0
0
VERTEX
8
AUSSEN
10
9.5202
20
-7.3051
30
0
0
VERTEX
8
AUSSEN
10
10.3923
20
-6.0000
30
0
0
VERTEX
8
AUSSEN
10
11.0866
20
-4.5922
30
0
0
VERTEX
8
AUSSEN
10
11.5911
20
-3.1058
30
0
0
VERTEX
8
AUSSEN
10
11.8973
20
-1.5663
30
0
0
SEQEND
8
AUSSEN
0
ENDSEC
0
EOF
