0
SECTION
2
HEADER
9
$ACADVER
1
AC1009
9
$INSUNITS
70
4
0
ENDSEC
0
SECTION
2
TABLES
0
TABLE
2
LAYER
70
2
0
LAYER
2
INNEN
70
0
62
5
6
CONTINUOUS
0
LAYER
2
AUSSEN
70
0
62
1
6
CONTINUOUS
0
ENDTAB
0
ENDSEC
0
SECTION
2
ENTITIES
0
POLYLINE
8
INNEN
66
1
70
1
0
VERTEX
8
INNEN
10
30.0000
20
0.0000
30
0
0
VERTEX
8
INNEN
10
29.8555
20
2.9405
30
0
0
VERTEX
8
INNEN
10
29.4236
20
5.8527
30
0
0
VERTEX
8
INNEN
10
28.7082
20
8.7085
30
0
0
VERTEX
8
INNEN
10
27.7164
20
11.4805
30
0
0
VERTEX
8
INNEN
10
26.4576
20
14.1419
30
0
0
VERTEX
8
INNEN
10
24.9441
20
16.6671
30
0
0
VERTEX
8
INNEN
10
23.1903
20
19.0318
30
0
0
VERTEX
8
INNEN
10
21.2132
20
21.2132
30
0
0
VERTEX
8
INNEN
10
19.0318
20
23.1903
30
0
0
VERTEX
8
INNEN
10
16.6671
20
24.9441
30
0
0
VERTEX
8
INNEN
10
14.1419
20
26.4576
30
0
0
VERTEX
8
INNEN
10
11.4805
20
27.7164
30
0
0
VERTEX
8
INNEN
10
8.7085
20
28.7082
30
0
0
VERTEX
8
INNEN
10
5.8527
20
29.4236
30
0
0
VERTEX
8
INNEN
10
2.9405
20
29.8555
30
0
0
VERTEX
8
INNEN
10
0.0000
20
30.0000
30
0
0
VERTEX
8
INNEN
10
-2.9405
20
29.8555
30
0
0
VERTEX
8
INNEN
10
-5.8527
20
29.4236
30
0
0
VERTEX
8
INNEN
10
-8.7085
20
28.7082
30
0
0
VERTEX
8
INNEN
10
-11.4805
20
27.7164
30
0
0
VERTEX
8
INNEN
10
-14.1419
20
26.4576
30
0
0
VERTEX
8
INNEN
10
-16.6671
20
24.9441
30
0
0
VERTEX
8
INNEN
10
-19.0318
20
23.1903
30
0
0
VERTEX
8
INNEN
10
-21.2132
20
21.2132
30
0
0
VERTEX
8
INNEN
10
-23.1903
20
19.0318
30
0
0
VERTEX
8
INNEN
10
-24.9441
20
16.6671
30
0
0
VERTEX
8
INNEN
10
-26.4576
20
14.1419
30
0
0
VERTEX
8
INNEN
10
-27.7164
20
11.4805
30
0
0
VERTEX
8
INNEN
10
-28.7082
20
8.7085
30
0
0
VERTEX
8
INNEN
10
-29.4236
20
5.8527
30
0
0
VERTEX
8
INNEN
10
-29.8555
20
2.9405
30
0
0
VERTEX
8
INNEN
10
-30.0000
20
0.0000
30
0
0
VERTEX
8
INNEN
10
-29.8555
20
-2.9405
30
0
0
VERTEX
8
INNEN
10
-29.4236
20
-5.8527
30
0
0
VERTEX
8
INNEN
10
-28.7082
20
-8.7085
30
0
0
VERTEX
8
INNEN
10
-27.7164
20
-11.4805
30
0
0
VERTEX
8
INNEN
10
-26.4576
20
-14.1419
30
0
0
VERTEX
8
INNEN
10
-24.9441
20
-16.6671
30
0
0
VERTEX
8
INNEN
10
-23.1903
20
-19.0318
30
0
0
VERTEX
8
INNEN
10
-21.2132
20
-21.2132
30
0
0
VERTEX
8
INNEN
10
-19.0318
20
-23.1903
30
0
0
VERTEX
8
INNEN
10
-16.6671
20
-24.9441
30
0
0
VERTEX
8
INNEN
10
-14.1419
20
-26.4576
30
0
0
VERTEX
8
INNEN
10
-11.4805
20
-27.7164
30
0
0
VERTEX
8
INNEN
10
-8.7085
20
-28.7082
30
0
0
VERTEX
8
INNEN
10
-5.8527
20
-29.4236
30
0
0
VERTEX
8
INNEN
10
-2.9405
20
-29.8555
30
0
0
VERTEX
8
INNEN
10
-0.0000
20
-30.0000
30
0
0
VERTEX
8
INNEN
10
2.9405
20
-29.8555
30
0
0
VERTEX
8
INNEN
10
5.8527
20
-29.4236
30
0
0
VERTEX
8
INNEN
10
8.7085
20
-28.7082
30
0
0
VERTEX
8
INNEN
10
11.4805
20
-27.7164
30
0
0
VERTEX
8
INNEN
10
14.1419
20
-26.4576
30
0
0
VERTEX
8
INNEN
10
16.6671
20
-24.9441
30
0
0
VERTEX
8
INNEN
10
19.0318
20
-23.1903
30
0
0
VERTEX
8
INNEN
10
21.2132
20
-21.2132
30
0
0
VERTEX
8
INNEN
10
23.1903
20
-19.0318
30
0
0
VERTEX
8
INNEN
10
24.9441
20
-16.6671
30
0
0
VERTEX
8
INNEN
10
26.4576
20
-14.1419
30
0
0
VERTEX
8
INNEN
10
27.7164
20
-11.4805
30
0
0
VERTEX
8
INNEN
10
28.7082
20
-8.7085
30
0
0
VERTEX
8
INNEN
10
29.4236
20
-5.8527
30
0
0
VERTEX
8
INNEN
10
29.8555
20
-2.9405
30
0
0
SEQEND
8
INNEN
0
POLYLINE
8
AUSSEN
66
1
70
1
0
VERTEX
8
AUSSEN
10
55.0000
20
10.0000
30
0
0
VERTEX
8
AUSSEN
10
54.8555
20
12.9405
30
0
0
VERTEX
8
AUSSEN
10
54.4236
20
15.8527
30
0
0
VERTEX
8
AUSSEN
10
53.7082
20
18.7085
30
0
0
VERTEX
8
AUSSEN
10
52.7164
20
21.4805
30
0
0
VERTEX
8
AUSSEN
10
51.4576
20
24.1419
30
0
0
VERTEX
8
AUSSEN
10
49.9441
20
26.6671
30
0
0
VERTEX
8
AUSSEN
10
48.1903
20
29.0318
30
0
0
VERTEX
8
AUSSEN
10
46.2132
20
31.2132
30
0
0
VERTEX
8
AUSSEN
10
44.0318
20
33.1903
30
0
0
VERTEX
8
AUSSEN
10
41.6671
20
34.9441
30
0
0
VERTEX
8
AUSSEN
10
39.1419
20
36.4576
30
0
0
VERTEX
8
AUSSEN
10
36.4805
20
37.7164
30
0
0
VERTEX
8
AUSSEN
10
33.7085
20
38.7082
30
0
0
VERTEX
8
AUSSEN
10
30.8527
20
39.4236
30
0
0
VERTEX
8
AUSSEN
10
27.9405
20
39.8555
30
0
0
VERTEX
8
AUSSEN
10
25.0000
20
40.0000
30
0
0
VERTEX
8
AUSSEN
10
22.0595
20
39.8555
30
0
0
VERTEX
8
AUSSEN
10
19.1473
20
39.4236
30
0
0
VERTEX
8
AUSSEN
10
16.2915
20
38.7082
30
0
0
VERTEX
8
AUSSEN
10
13.5195
20
37.7164
30
0
0
VERTEX
8
AUSSEN
10
10.8581
20
36.4576
30
0
0
VERTEX
8
AUSSEN
10
8.3329
20
34.9441
30
0
0
VERTEX
8
AUSSEN
10
5.9682
20
33.1903
30
0
0
VERTEX
8
AUSSEN
10
3.7868
20
31.2132
30
0
0
VERTEX
8
AUSSEN
10
1.8097
20
29.0318
30
0
0
VERTEX
8
AUSSEN
10
0.0559
20
26.6671
30
0
0
VERTEX
8
AUSSEN
10
-1.4576
20
24.1419
30
0
0
VERTEX
8
AUSSEN
10
-2.7164
20
21.4805
30
0
0
VERTEX
8
AUSSEN
10
-3.7082
20
18.7085
30
0
0
VERTEX
8
AUSSEN
10
-4.4236
20
15.8527
30
0
0
VERTEX
8
AUSSEN
10
-4.8555
20
12.9405
30
0
0
VERTEX
8
AUSSEN
10
-5.0000
20
10.0000
30
0
0
VERTEX
8
AUSSEN
10
-4.8555
20
7.0595
30
0
0
VERTEX
8
AUSSEN
10
-4.4236
20
4.1473
30
0
0
VERTEX
8
AUSSEN
10
-3.7082
20
1.2915
30
0
0
VERTEX
8
AUSSEN
10
-2.7164
20
-1.4805
30
0
0
VERTEX
8
AUSSEN
10
-1.4576
20
-4.1419
30
0
0
VERTEX
8
AUSSEN
10
0.0559
20
-6.6671
30
0
0
VERTEX
8
AUSSEN
10
1.8097
20
-9.0318
30
0
0
VERTEX
8
AUSSEN
10
3.7868
20
-11.2132
30
0
0
VERTEX
8
AUSSEN
10
5.9682
20
-13.1903
30
0
0
VERTEX
8
AUSSEN
10
8.3329
20
-14.9441
30
0
0
VERTEX
8
AUSSEN
10
10.8581
20
-16.4576
30
0
0
VERTEX
8
AUSSEN
10
13.5195
20
-17.7164
30
0
0
VERTEX
8
AUSSEN
10
16.2915
20
-18.7082
30
0
0
VERTEX
8
AUSSEN
10
19.1473
20
-19.4236
30
0
0
VERTEX
8
AUSSEN
10
22.0595
20
-19.8555
30
0
0
VERTEX
8
AUSSEN
10
25.0000
20
-20.0000
30
0
0
VERTEX
8
AUSSEN
10
27.9405
20
-19.8555
30
0
0
VERTEX
8
AUSSEN
10
30.8527
20
-19.4236
30
0
0
VERTEX
8
AUSSEN
10
33.7085
20
-18.7082
30
0
0
VERTEX
8
AUSSEN
10
36.4805
20
-17.7164
30
0
0
VERTEX
8
AUSSEN
10
39.1419
20
-16.4576
30
0
0
VERTEX
8
AUSSEN
10
41.6671
20
-14.9441
30
0
0
VERTEX
8
AUSSEN
10
44.0318
20
-13.1903
30
0
0
VERTEX
8
AUSSEN
10
46.2132
20
-11.2132
30
0
0
VERTEX
8
AUSSEN
10
48.1903
20
-9.0318
30
0
0
VERTEX
8
AUSSEN
10
49.9441
20
-6.6671
30
0
0
VERTEX
8
AUSSEN
10
51.4576
20
-4.1419
30
0
0
VERTEX
8
AUSSEN
10
52.7164
20
-1.4805
30
0
0
VERTEX
8
AUSSEN
10
53.7082
20
1.2915
30
0
0
VERTEX
8
AUSSEN
10
54.4236
20
4.1473
30
0
0
VERTEX
8
AUSSEN
10
54.8555
20
7.0595
30
0
0
SEQEND
8
AUSSEN
0
ENDSEC
0
EOF
