# Testrumpf für AI Foam Cut — Achteck-Spindel, 300 mm
o Testrumpf
v 0.000 8.000 0.000
v 0.000 5.657 5.657
v 0.000 0.000 8.000
v 0.000 -5.657 5.657
v 0.000 -8.000 0.000
v 0.000 -5.657 -5.657
v 0.000 -0.000 -8.000
v 0.000 5.657 -5.657
v 30.000 23.283 0.000
v 30.000 16.463 16.463
v 30.000 0.000 23.283
v 30.000 -16.463 16.463
v 30.000 -23.283 0.000
v 30.000 -16.463 -16.463
v 30.000 -0.000 -23.283
v 30.000 16.463 -16.463
v 60.000 32.395 0.000
v 60.000 22.906 22.906
v 60.000 0.000 32.395
v 60.000 -22.906 22.906
v 60.000 -32.395 0.000
v 60.000 -22.906 -22.906
v 60.000 -0.000 -32.395
v 60.000 22.906 -22.906
v 90.000 37.815 0.000
v 90.000 26.739 26.739
v 90.000 0.000 37.815
v 90.000 -26.739 26.739
v 90.000 -37.815 0.000
v 90.000 -26.739 -26.739
v 90.000 -0.000 -37.815
v 90.000 26.739 -26.739
v 120.000 39.940 0.000
v 120.000 28.242 28.242
v 120.000 0.000 39.940
v 120.000 -28.242 28.242
v 120.000 -39.940 0.000
v 120.000 -28.242 -28.242
v 120.000 -0.000 -39.940
v 120.000 28.242 -28.242
v 150.000 39.131 0.000
v 150.000 27.670 27.670
v 150.000 0.000 39.131
v 150.000 -27.670 27.670
v 150.000 -39.131 0.000
v 150.000 -27.670 -27.670
v 150.000 -0.000 -39.131
v 150.000 27.670 -27.670
v 180.000 35.819 0.000
v 180.000 25.328 25.328
v 180.000 0.000 35.819
v 180.000 -25.328 25.328
v 180.000 -35.819 0.000
v 180.000 -25.328 -25.328
v 180.000 -0.000 -35.819
v 180.000 25.328 -25.328
v 210.000 30.502 0.000
v 210.000 21.568 21.568
v 210.000 0.000 30.502
v 210.000 -21.568 21.568
v 210.000 -30.502 0.000
v 210.000 -21.568 -21.568
v 210.000 -0.000 -30.502
v 210.000 21.568 -21.568
v 240.000 23.722 0.000
v 240.000 16.774 16.774
v 240.000 0.000 23.722
v 240.000 -16.774 16.774
v 240.000 -23.722 0.000
v 240.000 -16.774 -16.774
v 240.000 -0.000 -23.722
v 240.000 16.774 -16.774
v 270.000 16.039 0.000
v 270.000 11.341 11.341
v 270.000 0.000 16.039
v 270.000 -11.341 11.341
v 270.000 -16.039 0.000
v 270.000 -11.341 -11.341
v 270.000 -0.000 -16.039
v 270.000 11.341 -11.341
v 300.000 8.000 0.000
v 300.000 5.657 5.657
v 300.000 0.000 8.000
v 300.000 -5.657 5.657
v 300.000 -8.000 0.000
v 300.000 -5.657 -5.657
v 300.000 -0.000 -8.000
v 300.000 5.657 -5.657
f 1 9 10 2
f 2 10 11 3
f 3 11 12 4
f 4 12 13 5
f 5 13 14 6
f 6 14 15 7
f 7 15 16 8
f 8 16 9 1
f 9 17 18 10
f 10 18 19 11
f 11 19 20 12
f 12 20 21 13
f 13 21 22 14
f 14 22 23 15
f 15 23 24 16
f 16 24 17 9
f 17 25 26 18
f 18 26 27 19
f 19 27 28 20
f 20 28 29 21
f 21 29 30 22
f 22 30 31 23
f 23 31 32 24
f 24 32 25 17
f 25 33 34 26
f 26 34 35 27
f 27 35 36 28
f 28 36 37 29
f 29 37 38 30
f 30 38 39 31
f 31 39 40 32
f 32 40 33 25
f 33 41 42 34
f 34 42 43 35
f 35 43 44 36
f 36 44 45 37
f 37 45 46 38
f 38 46 47 39
f 39 47 48 40
f 40 48 41 33
f 41 49 50 42
f 42 50 51 43
f 43 51 52 44
f 44 52 53 45
f 45 53 54 46
f 46 54 55 47
f 47 55 56 48
f 48 56 49 41
f 49 57 58 50
f 50 58 59 51
f 51 59 60 52
f 52 60 61 53
f 53 61 62 54
f 54 62 63 55
f 55 63 64 56
f 56 64 57 49
f 57 65 66 58
f 58 66 67 59
f 59 67 68 60
f 60 68 69 61
f 61 69 70 62
f 62 70 71 63
f 63 71 72 64
f 64 72 65 57
f 65 73 74 66
f 66 74 75 67
f 67 75 76 68
f 68 76 77 69
f 69 77 78 70
f 70 78 79 71
f 71 79 80 72
f 72 80 73 65
f 73 81 82 74
f 74 82 83 75
f 75 83 84 76
f 76 84 85 77
f 77 85 86 78
f 78 86 87 79
f 79 87 88 80
f 80 88 81 73
f 8 7 6 5 4 3 2 1
f 81 82 83 84 85 86 87 88
